<!DOCTYPE svg PUBLIC "-//W3C//DTD SVG 1.1//EN" "http://www.w3.org/Graphics/SVG/1.1/DTD/svg11.dtd">
<svg xmlns="http://www.w3.org/2000/svg" xmlns:xlink="http://www.w3.org/1999/xlink" version="1.1"  viewBox="0 0 397 397"><defs><filter id="dropShadow"><feGaussianBlur in="SourceAlpha" stdDeviation="1.7" result="blur"/><feOffset in="blur" dx="3" dy="3" result="offsetBlur"/><feFlood flood-color="#3D4574" flood-opacity="0.4" result="offsetColor"/><feComposite in="offsetColor" in2="offsetBlur" operator="in" result="offsetBlur"/><feBlend in="SourceGraphic" in2="offsetBlur"/></filter></defs><g filter="url(#dropShadow)"><path d="M -0.5 195 L 194.5 82.42 L 389.5 195 L 194.5 307.58 L -0.5 195 Z" fill="#33ff99" stroke="none" transform="rotate(270,194.5,195)" pointer-events="none"/><path d="M 0 197.5 L 195 84.92 L 390 197.5 L 195 310.08 L 0 197.5 Z" fill="#ff3333" stroke="none" transform="rotate(180,195,197.5)" pointer-events="none"/><ellipse cx="200" cy="195" rx="130" ry="130" fill="#1a1a1a" stroke="none" pointer-events="none"/><path d="M 85 194.5 L 235 194.5" fill="none" stroke="#007fff" stroke-width="30" stroke-miterlimit="10" pointer-events="none"/><path d="M 238.62 319.13 C 185.22 335.74 127.19 316.35 94.51 270.97 C 61.83 225.6 61.83 164.4 94.51 119.03 C 127.19 73.65 185.22 54.26 238.62 70.87" fill="none" stroke="#000000" stroke-width="30" stroke-miterlimit="10" transform="translate(2,3)" opacity="0.25"/><path d="M 238.62 319.13 C 185.22 335.74 127.19 316.35 94.51 270.97 C 61.83 225.6 61.83 164.4 94.51 119.03 C 127.19 73.65 185.22 54.26 238.62 70.87" fill="none" stroke="#0066cc" stroke-width="30" stroke-miterlimit="10" pointer-events="none"/></g></svg>