<!DOCTYPE svg PUBLIC "-//W3C//DTD SVG 1.1//EN" "http://www.w3.org/Graphics/SVG/1.1/DTD/svg11.dtd">
<svg xmlns="http://www.w3.org/2000/svg" xmlns:xlink="http://www.w3.org/1999/xlink" version="1.1"  viewBox="-5 0 112 112"><defs><linearGradient x1="0%" y1="0%" x2="0%" y2="100%" id="mx-gradient-6379eb-1-00cabb-1-s-0"><stop offset="0%" style="stop-color:#6379EB"/><stop offset="100%" style="stop-color:#00CABB"/></linearGradient><filter id="dropShadow"><feGaussianBlur in="SourceAlpha" stdDeviation="1.7" result="blur"/><feOffset in="blur" dx="3" dy="3" result="offsetBlur"/><feFlood flood-color="#3D4574" flood-opacity="0.4" result="offsetColor"/><feComposite in="offsetColor" in2="offsetBlur" operator="in" result="offsetBlur"/><feBlend in="SourceGraphic" in2="offsetBlur"/></filter></defs><g filter="url(#dropShadow)"><path d="M 70.55 61.77 C 75.57 63.57 77.25 65.55 86.76 67.1 C 88.05 67.24 89.43 66.94 90.3 65.6 C 90.58 64.54 90.19 63.95 89.59 63.5 C 88.2 62.44 86.25 61.45 83.64 61.33 C 77.75 61.11 74.08 61.43 70.55 61.77 Z M 35.11 68.13 C 44.55 64.36 53.05 62.1 61.2 60.4 C 54.44 55.9 50.26 49.95 47.01 43.47 C 43.04 53.51 39.08 61.51 35.11 68.13 Z M 27.99 71.51 C 22.72 76.3 19.01 79.71 16.04 84.2 C 15.39 85.2 13.88 87.13 14.31 88.51 C 15.22 88.69 16.77 88.19 19.96 85.09 C 29.35 73.38 38.11 56.93 45.42 39.39 C 44.25 34.94 43.07 30.5 42.17 24.11 C 41.78 20.18 41.56 16.5 42.14 14.04 C 42.49 12.98 43.48 11.5 44.84 11.25 C 45.78 11.15 47.73 11 49.1 11.48 C 52.6 14.49 51.25 18.5 50.8 20.69 C 50.7 18.37 50.54 16.43 49.22 14.05 C 47.8 11.66 47.59 11.47 46.91 11.39 C 46.1 11.47 45.66 13.29 45.37 15.84 C 44.98 20.11 46.43 27.98 47.79 33.17 C 48.74 29.91 49.66 26.49 50.36 22.03 C 50.52 25.96 50.68 29.76 48.92 37.37 C 52.88 48.21 58.53 55.2 66.16 59.35 C 72.42 58.77 79.82 57.95 84.65 58.76 C 88.76 59.53 90.21 61.03 90.6 62.37 C 91 65.16 90.34 66.99 89.98 67.71 C 89.33 68.9 87.32 69.68 85.73 69.62 C 77.87 69.08 69.59 65.55 64.59 62.5 C 50.33 64.87 43.27 66.94 34.42 69.74 C 30.35 76.76 26.28 83.53 22.21 87.56 C 19.98 89.47 17.63 91 14.49 90.09 L 11.67 88.49 C 11 86.74 11.87 84.83 12.54 83.43 C 14.49 79.66 22.95 73.61 27.99 71.51 Z" fill="#000000" stroke="none" transform="translate(2,3)" opacity="0.25"/><path d="M 70.55 61.77 C 75.57 63.57 77.25 65.55 86.76 67.1 C 88.05 67.24 89.43 66.94 90.3 65.6 C 90.58 64.54 90.19 63.95 89.59 63.5 C 88.2 62.44 86.25 61.45 83.64 61.33 C 77.75 61.11 74.08 61.43 70.55 61.77 Z M 35.11 68.13 C 44.55 64.36 53.05 62.1 61.2 60.4 C 54.44 55.9 50.26 49.95 47.01 43.47 C 43.04 53.51 39.08 61.51 35.11 68.13 Z M 27.99 71.51 C 22.72 76.3 19.01 79.71 16.04 84.2 C 15.39 85.2 13.88 87.13 14.31 88.51 C 15.22 88.69 16.77 88.19 19.96 85.09 C 29.35 73.38 38.11 56.93 45.42 39.39 C 44.25 34.94 43.07 30.5 42.17 24.11 C 41.78 20.18 41.56 16.5 42.14 14.04 C 42.49 12.98 43.48 11.5 44.84 11.25 C 45.78 11.15 47.73 11 49.1 11.48 C 52.6 14.49 51.25 18.5 50.8 20.69 C 50.7 18.37 50.54 16.43 49.22 14.05 C 47.8 11.66 47.59 11.47 46.91 11.39 C 46.1 11.47 45.66 13.29 45.37 15.84 C 44.98 20.11 46.43 27.98 47.79 33.17 C 48.74 29.91 49.66 26.49 50.36 22.03 C 50.52 25.96 50.68 29.76 48.92 37.37 C 52.88 48.21 58.53 55.2 66.16 59.35 C 72.42 58.77 79.82 57.95 84.65 58.76 C 88.76 59.53 90.21 61.03 90.6 62.37 C 91 65.16 90.34 66.99 89.98 67.71 C 89.33 68.9 87.32 69.68 85.73 69.62 C 77.87 69.08 69.59 65.55 64.59 62.5 C 50.33 64.87 43.27 66.94 34.42 69.74 C 30.35 76.76 26.28 83.53 22.21 87.56 C 19.98 89.47 17.63 91 14.49 90.09 L 11.67 88.49 C 11 86.74 11.87 84.83 12.54 83.43 C 14.49 79.66 22.95 73.61 27.99 71.51 Z" fill="url(#mx-gradient-6379eb-1-00cabb-1-s-0)" stroke="none" pointer-events="none"/></g></svg>