<?xml version="1.0" encoding="utf-8"?>
<!DOCTYPE svg PUBLIC "-//W3C//DTD SVG 20010904//EN" "http://www.w3.org/TR/2001/REC-SVG-20010904/DTD/svg10.dtd">
<svg xmlns="http://www.w3.org/2000/svg" xml:space="preserve" xmlns:xlink="http://www.w3.org/1999/xlink"  viewBox="0 0 212 212">
<desc></desc>
<rect fill="rgba(0,0,0,0)" cx="0" cy="0" />
<defs>
<rect id="p" width="4" height="4" />
</defs>
<g fill="#1a1a1a">
<use x="8" y="8" xlink:href="#p" />
<use x="12" y="8" xlink:href="#p" />
<use x="16" y="8" xlink:href="#p" />
<use x="20" y="8" xlink:href="#p" />
<use x="24" y="8" xlink:href="#p" />
<use x="28" y="8" xlink:href="#p" />
<use x="32" y="8" xlink:href="#p" />
<use x="44" y="8" xlink:href="#p" />
<use x="52" y="8" xlink:href="#p" />
<use x="56" y="8" xlink:href="#p" />
<use x="60" y="8" xlink:href="#p" />
<use x="64" y="8" xlink:href="#p" />
<use x="68" y="8" xlink:href="#p" />
<use x="76" y="8" xlink:href="#p" />
<use x="84" y="8" xlink:href="#p" />
<use x="100" y="8" xlink:href="#p" />
<use x="104" y="8" xlink:href="#p" />
<use x="108" y="8" xlink:href="#p" />
<use x="124" y="8" xlink:href="#p" />
<use x="132" y="8" xlink:href="#p" />
<use x="148" y="8" xlink:href="#p" />
<use x="152" y="8" xlink:href="#p" />
<use x="156" y="8" xlink:href="#p" />
<use x="168" y="8" xlink:href="#p" />
<use x="176" y="8" xlink:href="#p" />
<use x="180" y="8" xlink:href="#p" />
<use x="184" y="8" xlink:href="#p" />
<use x="188" y="8" xlink:href="#p" />
<use x="192" y="8" xlink:href="#p" />
<use x="196" y="8" xlink:href="#p" />
<use x="200" y="8" xlink:href="#p" />
<use x="8" y="12" xlink:href="#p" />
<use x="32" y="12" xlink:href="#p" />
<use x="40" y="12" xlink:href="#p" />
<use x="56" y="12" xlink:href="#p" />
<use x="84" y="12" xlink:href="#p" />
<use x="92" y="12" xlink:href="#p" />
<use x="96" y="12" xlink:href="#p" />
<use x="100" y="12" xlink:href="#p" />
<use x="104" y="12" xlink:href="#p" />
<use x="116" y="12" xlink:href="#p" />
<use x="120" y="12" xlink:href="#p" />
<use x="124" y="12" xlink:href="#p" />
<use x="128" y="12" xlink:href="#p" />
<use x="136" y="12" xlink:href="#p" />
<use x="140" y="12" xlink:href="#p" />
<use x="160" y="12" xlink:href="#p" />
<use x="164" y="12" xlink:href="#p" />
<use x="168" y="12" xlink:href="#p" />
<use x="176" y="12" xlink:href="#p" />
<use x="200" y="12" xlink:href="#p" />
<use x="8" y="16" xlink:href="#p" />
<use x="16" y="16" xlink:href="#p" />
<use x="20" y="16" xlink:href="#p" />
<use x="24" y="16" xlink:href="#p" />
<use x="32" y="16" xlink:href="#p" />
<use x="48" y="16" xlink:href="#p" />
<use x="60" y="16" xlink:href="#p" />
<use x="80" y="16" xlink:href="#p" />
<use x="84" y="16" xlink:href="#p" />
<use x="92" y="16" xlink:href="#p" />
<use x="96" y="16" xlink:href="#p" />
<use x="104" y="16" xlink:href="#p" />
<use x="108" y="16" xlink:href="#p" />
<use x="128" y="16" xlink:href="#p" />
<use x="136" y="16" xlink:href="#p" />
<use x="144" y="16" xlink:href="#p" />
<use x="164" y="16" xlink:href="#p" />
<use x="168" y="16" xlink:href="#p" />
<use x="176" y="16" xlink:href="#p" />
<use x="184" y="16" xlink:href="#p" />
<use x="188" y="16" xlink:href="#p" />
<use x="192" y="16" xlink:href="#p" />
<use x="200" y="16" xlink:href="#p" />
<use x="8" y="20" xlink:href="#p" />
<use x="16" y="20" xlink:href="#p" />
<use x="20" y="20" xlink:href="#p" />
<use x="24" y="20" xlink:href="#p" />
<use x="32" y="20" xlink:href="#p" />
<use x="40" y="20" xlink:href="#p" />
<use x="44" y="20" xlink:href="#p" />
<use x="48" y="20" xlink:href="#p" />
<use x="52" y="20" xlink:href="#p" />
<use x="68" y="20" xlink:href="#p" />
<use x="76" y="20" xlink:href="#p" />
<use x="84" y="20" xlink:href="#p" />
<use x="112" y="20" xlink:href="#p" />
<use x="128" y="20" xlink:href="#p" />
<use x="144" y="20" xlink:href="#p" />
<use x="148" y="20" xlink:href="#p" />
<use x="152" y="20" xlink:href="#p" />
<use x="156" y="20" xlink:href="#p" />
<use x="164" y="20" xlink:href="#p" />
<use x="176" y="20" xlink:href="#p" />
<use x="184" y="20" xlink:href="#p" />
<use x="188" y="20" xlink:href="#p" />
<use x="192" y="20" xlink:href="#p" />
<use x="200" y="20" xlink:href="#p" />
<use x="8" y="24" xlink:href="#p" />
<use x="16" y="24" xlink:href="#p" />
<use x="20" y="24" xlink:href="#p" />
<use x="24" y="24" xlink:href="#p" />
<use x="32" y="24" xlink:href="#p" />
<use x="44" y="24" xlink:href="#p" />
<use x="52" y="24" xlink:href="#p" />
<use x="56" y="24" xlink:href="#p" />
<use x="60" y="24" xlink:href="#p" />
<use x="72" y="24" xlink:href="#p" />
<use x="76" y="24" xlink:href="#p" />
<use x="84" y="24" xlink:href="#p" />
<use x="88" y="24" xlink:href="#p" />
<use x="92" y="24" xlink:href="#p" />
<use x="96" y="24" xlink:href="#p" />
<use x="100" y="24" xlink:href="#p" />
<use x="104" y="24" xlink:href="#p" />
<use x="108" y="24" xlink:href="#p" />
<use x="112" y="24" xlink:href="#p" />
<use x="116" y="24" xlink:href="#p" />
<use x="152" y="24" xlink:href="#p" />
<use x="156" y="24" xlink:href="#p" />
<use x="176" y="24" xlink:href="#p" />
<use x="184" y="24" xlink:href="#p" />
<use x="188" y="24" xlink:href="#p" />
<use x="192" y="24" xlink:href="#p" />
<use x="200" y="24" xlink:href="#p" />
<use x="8" y="28" xlink:href="#p" />
<use x="32" y="28" xlink:href="#p" />
<use x="40" y="28" xlink:href="#p" />
<use x="48" y="28" xlink:href="#p" />
<use x="52" y="28" xlink:href="#p" />
<use x="68" y="28" xlink:href="#p" />
<use x="72" y="28" xlink:href="#p" />
<use x="76" y="28" xlink:href="#p" />
<use x="80" y="28" xlink:href="#p" />
<use x="84" y="28" xlink:href="#p" />
<use x="88" y="28" xlink:href="#p" />
<use x="96" y="28" xlink:href="#p" />
<use x="112" y="28" xlink:href="#p" />
<use x="116" y="28" xlink:href="#p" />
<use x="120" y="28" xlink:href="#p" />
<use x="124" y="28" xlink:href="#p" />
<use x="128" y="28" xlink:href="#p" />
<use x="140" y="28" xlink:href="#p" />
<use x="144" y="28" xlink:href="#p" />
<use x="160" y="28" xlink:href="#p" />
<use x="176" y="28" xlink:href="#p" />
<use x="200" y="28" xlink:href="#p" />
<use x="8" y="32" xlink:href="#p" />
<use x="12" y="32" xlink:href="#p" />
<use x="16" y="32" xlink:href="#p" />
<use x="20" y="32" xlink:href="#p" />
<use x="24" y="32" xlink:href="#p" />
<use x="28" y="32" xlink:href="#p" />
<use x="32" y="32" xlink:href="#p" />
<use x="40" y="32" xlink:href="#p" />
<use x="48" y="32" xlink:href="#p" />
<use x="56" y="32" xlink:href="#p" />
<use x="64" y="32" xlink:href="#p" />
<use x="72" y="32" xlink:href="#p" />
<use x="80" y="32" xlink:href="#p" />
<use x="88" y="32" xlink:href="#p" />
<use x="96" y="32" xlink:href="#p" />
<use x="104" y="32" xlink:href="#p" />
<use x="112" y="32" xlink:href="#p" />
<use x="120" y="32" xlink:href="#p" />
<use x="128" y="32" xlink:href="#p" />
<use x="136" y="32" xlink:href="#p" />
<use x="144" y="32" xlink:href="#p" />
<use x="152" y="32" xlink:href="#p" />
<use x="160" y="32" xlink:href="#p" />
<use x="168" y="32" xlink:href="#p" />
<use x="176" y="32" xlink:href="#p" />
<use x="180" y="32" xlink:href="#p" />
<use x="184" y="32" xlink:href="#p" />
<use x="188" y="32" xlink:href="#p" />
<use x="192" y="32" xlink:href="#p" />
<use x="196" y="32" xlink:href="#p" />
<use x="200" y="32" xlink:href="#p" />
<use x="48" y="36" xlink:href="#p" />
<use x="64" y="36" xlink:href="#p" />
<use x="72" y="36" xlink:href="#p" />
<use x="76" y="36" xlink:href="#p" />
<use x="80" y="36" xlink:href="#p" />
<use x="88" y="36" xlink:href="#p" />
<use x="92" y="36" xlink:href="#p" />
<use x="96" y="36" xlink:href="#p" />
<use x="112" y="36" xlink:href="#p" />
<use x="132" y="36" xlink:href="#p" />
<use x="140" y="36" xlink:href="#p" />
<use x="144" y="36" xlink:href="#p" />
<use x="148" y="36" xlink:href="#p" />
<use x="152" y="36" xlink:href="#p" />
<use x="160" y="36" xlink:href="#p" />
<use x="168" y="36" xlink:href="#p" />
<use x="8" y="40" xlink:href="#p" />
<use x="12" y="40" xlink:href="#p" />
<use x="16" y="40" xlink:href="#p" />
<use x="20" y="40" xlink:href="#p" />
<use x="24" y="40" xlink:href="#p" />
<use x="32" y="40" xlink:href="#p" />
<use x="36" y="40" xlink:href="#p" />
<use x="40" y="40" xlink:href="#p" />
<use x="52" y="40" xlink:href="#p" />
<use x="56" y="40" xlink:href="#p" />
<use x="68" y="40" xlink:href="#p" />
<use x="72" y="40" xlink:href="#p" />
<use x="80" y="40" xlink:href="#p" />
<use x="92" y="40" xlink:href="#p" />
<use x="96" y="40" xlink:href="#p" />
<use x="100" y="40" xlink:href="#p" />
<use x="104" y="40" xlink:href="#p" />
<use x="108" y="40" xlink:href="#p" />
<use x="112" y="40" xlink:href="#p" />
<use x="116" y="40" xlink:href="#p" />
<use x="124" y="40" xlink:href="#p" />
<use x="152" y="40" xlink:href="#p" />
<use x="156" y="40" xlink:href="#p" />
<use x="164" y="40" xlink:href="#p" />
<use x="172" y="40" xlink:href="#p" />
<use x="180" y="40" xlink:href="#p" />
<use x="188" y="40" xlink:href="#p" />
<use x="196" y="40" xlink:href="#p" />
<use x="8" y="44" xlink:href="#p" />
<use x="16" y="44" xlink:href="#p" />
<use x="20" y="44" xlink:href="#p" />
<use x="24" y="44" xlink:href="#p" />
<use x="44" y="44" xlink:href="#p" />
<use x="52" y="44" xlink:href="#p" />
<use x="56" y="44" xlink:href="#p" />
<use x="60" y="44" xlink:href="#p" />
<use x="64" y="44" xlink:href="#p" />
<use x="68" y="44" xlink:href="#p" />
<use x="84" y="44" xlink:href="#p" />
<use x="104" y="44" xlink:href="#p" />
<use x="112" y="44" xlink:href="#p" />
<use x="124" y="44" xlink:href="#p" />
<use x="148" y="44" xlink:href="#p" />
<use x="152" y="44" xlink:href="#p" />
<use x="156" y="44" xlink:href="#p" />
<use x="168" y="44" xlink:href="#p" />
<use x="176" y="44" xlink:href="#p" />
<use x="184" y="44" xlink:href="#p" />
<use x="188" y="44" xlink:href="#p" />
<use x="8" y="48" xlink:href="#p" />
<use x="16" y="48" xlink:href="#p" />
<use x="20" y="48" xlink:href="#p" />
<use x="24" y="48" xlink:href="#p" />
<use x="28" y="48" xlink:href="#p" />
<use x="32" y="48" xlink:href="#p" />
<use x="56" y="48" xlink:href="#p" />
<use x="60" y="48" xlink:href="#p" />
<use x="64" y="48" xlink:href="#p" />
<use x="80" y="48" xlink:href="#p" />
<use x="92" y="48" xlink:href="#p" />
<use x="100" y="48" xlink:href="#p" />
<use x="108" y="48" xlink:href="#p" />
<use x="116" y="48" xlink:href="#p" />
<use x="120" y="48" xlink:href="#p" />
<use x="124" y="48" xlink:href="#p" />
<use x="128" y="48" xlink:href="#p" />
<use x="132" y="48" xlink:href="#p" />
<use x="136" y="48" xlink:href="#p" />
<use x="140" y="48" xlink:href="#p" />
<use x="148" y="48" xlink:href="#p" />
<use x="164" y="48" xlink:href="#p" />
<use x="180" y="48" xlink:href="#p" />
<use x="188" y="48" xlink:href="#p" />
<use x="196" y="48" xlink:href="#p" />
<use x="200" y="48" xlink:href="#p" />
<use x="12" y="52" xlink:href="#p" />
<use x="16" y="52" xlink:href="#p" />
<use x="20" y="52" xlink:href="#p" />
<use x="28" y="52" xlink:href="#p" />
<use x="36" y="52" xlink:href="#p" />
<use x="40" y="52" xlink:href="#p" />
<use x="52" y="52" xlink:href="#p" />
<use x="56" y="52" xlink:href="#p" />
<use x="64" y="52" xlink:href="#p" />
<use x="68" y="52" xlink:href="#p" />
<use x="72" y="52" xlink:href="#p" />
<use x="80" y="52" xlink:href="#p" />
<use x="104" y="52" xlink:href="#p" />
<use x="112" y="52" xlink:href="#p" />
<use x="116" y="52" xlink:href="#p" />
<use x="120" y="52" xlink:href="#p" />
<use x="132" y="52" xlink:href="#p" />
<use x="144" y="52" xlink:href="#p" />
<use x="168" y="52" xlink:href="#p" />
<use x="172" y="52" xlink:href="#p" />
<use x="176" y="52" xlink:href="#p" />
<use x="180" y="52" xlink:href="#p" />
<use x="184" y="52" xlink:href="#p" />
<use x="8" y="56" xlink:href="#p" />
<use x="12" y="56" xlink:href="#p" />
<use x="24" y="56" xlink:href="#p" />
<use x="28" y="56" xlink:href="#p" />
<use x="32" y="56" xlink:href="#p" />
<use x="48" y="56" xlink:href="#p" />
<use x="56" y="56" xlink:href="#p" />
<use x="60" y="56" xlink:href="#p" />
<use x="64" y="56" xlink:href="#p" />
<use x="76" y="56" xlink:href="#p" />
<use x="84" y="56" xlink:href="#p" />
<use x="96" y="56" xlink:href="#p" />
<use x="100" y="56" xlink:href="#p" />
<use x="104" y="56" xlink:href="#p" />
<use x="108" y="56" xlink:href="#p" />
<use x="120" y="56" xlink:href="#p" />
<use x="124" y="56" xlink:href="#p" />
<use x="128" y="56" xlink:href="#p" />
<use x="140" y="56" xlink:href="#p" />
<use x="144" y="56" xlink:href="#p" />
<use x="148" y="56" xlink:href="#p" />
<use x="152" y="56" xlink:href="#p" />
<use x="156" y="56" xlink:href="#p" />
<use x="160" y="56" xlink:href="#p" />
<use x="164" y="56" xlink:href="#p" />
<use x="168" y="56" xlink:href="#p" />
<use x="172" y="56" xlink:href="#p" />
<use x="180" y="56" xlink:href="#p" />
<use x="192" y="56" xlink:href="#p" />
<use x="196" y="56" xlink:href="#p" />
<use x="8" y="60" xlink:href="#p" />
<use x="12" y="60" xlink:href="#p" />
<use x="28" y="60" xlink:href="#p" />
<use x="36" y="60" xlink:href="#p" />
<use x="68" y="60" xlink:href="#p" />
<use x="88" y="60" xlink:href="#p" />
<use x="96" y="60" xlink:href="#p" />
<use x="104" y="60" xlink:href="#p" />
<use x="108" y="60" xlink:href="#p" />
<use x="116" y="60" xlink:href="#p" />
<use x="120" y="60" xlink:href="#p" />
<use x="124" y="60" xlink:href="#p" />
<use x="152" y="60" xlink:href="#p" />
<use x="156" y="60" xlink:href="#p" />
<use x="164" y="60" xlink:href="#p" />
<use x="172" y="60" xlink:href="#p" />
<use x="176" y="60" xlink:href="#p" />
<use x="184" y="60" xlink:href="#p" />
<use x="188" y="60" xlink:href="#p" />
<use x="192" y="60" xlink:href="#p" />
<use x="196" y="60" xlink:href="#p" />
<use x="8" y="64" xlink:href="#p" />
<use x="20" y="64" xlink:href="#p" />
<use x="28" y="64" xlink:href="#p" />
<use x="32" y="64" xlink:href="#p" />
<use x="36" y="64" xlink:href="#p" />
<use x="40" y="64" xlink:href="#p" />
<use x="48" y="64" xlink:href="#p" />
<use x="52" y="64" xlink:href="#p" />
<use x="56" y="64" xlink:href="#p" />
<use x="76" y="64" xlink:href="#p" />
<use x="80" y="64" xlink:href="#p" />
<use x="84" y="64" xlink:href="#p" />
<use x="92" y="64" xlink:href="#p" />
<use x="104" y="64" xlink:href="#p" />
<use x="116" y="64" xlink:href="#p" />
<use x="120" y="64" xlink:href="#p" />
<use x="124" y="64" xlink:href="#p" />
<use x="128" y="64" xlink:href="#p" />
<use x="140" y="64" xlink:href="#p" />
<use x="144" y="64" xlink:href="#p" />
<use x="152" y="64" xlink:href="#p" />
<use x="160" y="64" xlink:href="#p" />
<use x="164" y="64" xlink:href="#p" />
<use x="180" y="64" xlink:href="#p" />
<use x="184" y="64" xlink:href="#p" />
<use x="192" y="64" xlink:href="#p" />
<use x="196" y="64" xlink:href="#p" />
<use x="200" y="64" xlink:href="#p" />
<use x="8" y="68" xlink:href="#p" />
<use x="16" y="68" xlink:href="#p" />
<use x="24" y="68" xlink:href="#p" />
<use x="28" y="68" xlink:href="#p" />
<use x="44" y="68" xlink:href="#p" />
<use x="48" y="68" xlink:href="#p" />
<use x="52" y="68" xlink:href="#p" />
<use x="56" y="68" xlink:href="#p" />
<use x="68" y="68" xlink:href="#p" />
<use x="76" y="68" xlink:href="#p" />
<use x="80" y="68" xlink:href="#p" />
<use x="84" y="68" xlink:href="#p" />
<use x="88" y="68" xlink:href="#p" />
<use x="92" y="68" xlink:href="#p" />
<use x="96" y="68" xlink:href="#p" />
<use x="100" y="68" xlink:href="#p" />
<use x="104" y="68" xlink:href="#p" />
<use x="108" y="68" xlink:href="#p" />
<use x="112" y="68" xlink:href="#p" />
<use x="124" y="68" xlink:href="#p" />
<use x="144" y="68" xlink:href="#p" />
<use x="148" y="68" xlink:href="#p" />
<use x="152" y="68" xlink:href="#p" />
<use x="156" y="68" xlink:href="#p" />
<use x="160" y="68" xlink:href="#p" />
<use x="164" y="68" xlink:href="#p" />
<use x="176" y="68" xlink:href="#p" />
<use x="180" y="68" xlink:href="#p" />
<use x="184" y="68" xlink:href="#p" />
<use x="188" y="68" xlink:href="#p" />
<use x="200" y="68" xlink:href="#p" />
<use x="8" y="72" xlink:href="#p" />
<use x="12" y="72" xlink:href="#p" />
<use x="24" y="72" xlink:href="#p" />
<use x="32" y="72" xlink:href="#p" />
<use x="36" y="72" xlink:href="#p" />
<use x="40" y="72" xlink:href="#p" />
<use x="44" y="72" xlink:href="#p" />
<use x="48" y="72" xlink:href="#p" />
<use x="56" y="72" xlink:href="#p" />
<use x="60" y="72" xlink:href="#p" />
<use x="68" y="72" xlink:href="#p" />
<use x="72" y="72" xlink:href="#p" />
<use x="80" y="72" xlink:href="#p" />
<use x="84" y="72" xlink:href="#p" />
<use x="88" y="72" xlink:href="#p" />
<use x="92" y="72" xlink:href="#p" />
<use x="100" y="72" xlink:href="#p" />
<use x="104" y="72" xlink:href="#p" />
<use x="116" y="72" xlink:href="#p" />
<use x="128" y="72" xlink:href="#p" />
<use x="136" y="72" xlink:href="#p" />
<use x="140" y="72" xlink:href="#p" />
<use x="148" y="72" xlink:href="#p" />
<use x="152" y="72" xlink:href="#p" />
<use x="176" y="72" xlink:href="#p" />
<use x="180" y="72" xlink:href="#p" />
<use x="188" y="72" xlink:href="#p" />
<use x="192" y="72" xlink:href="#p" />
<use x="196" y="72" xlink:href="#p" />
<use x="200" y="72" xlink:href="#p" />
<use x="8" y="76" xlink:href="#p" />
<use x="12" y="76" xlink:href="#p" />
<use x="16" y="76" xlink:href="#p" />
<use x="20" y="76" xlink:href="#p" />
<use x="24" y="76" xlink:href="#p" />
<use x="36" y="76" xlink:href="#p" />
<use x="48" y="76" xlink:href="#p" />
<use x="52" y="76" xlink:href="#p" />
<use x="56" y="76" xlink:href="#p" />
<use x="64" y="76" xlink:href="#p" />
<use x="76" y="76" xlink:href="#p" />
<use x="104" y="76" xlink:href="#p" />
<use x="116" y="76" xlink:href="#p" />
<use x="124" y="76" xlink:href="#p" />
<use x="140" y="76" xlink:href="#p" />
<use x="144" y="76" xlink:href="#p" />
<use x="160" y="76" xlink:href="#p" />
<use x="164" y="76" xlink:href="#p" />
<use x="176" y="76" xlink:href="#p" />
<use x="180" y="76" xlink:href="#p" />
<use x="188" y="76" xlink:href="#p" />
<use x="12" y="80" xlink:href="#p" />
<use x="20" y="80" xlink:href="#p" />
<use x="24" y="80" xlink:href="#p" />
<use x="32" y="80" xlink:href="#p" />
<use x="44" y="80" xlink:href="#p" />
<use x="48" y="80" xlink:href="#p" />
<use x="52" y="80" xlink:href="#p" />
<use x="56" y="80" xlink:href="#p" />
<use x="88" y="80" xlink:href="#p" />
<use x="108" y="80" xlink:href="#p" />
<use x="112" y="80" xlink:href="#p" />
<use x="120" y="80" xlink:href="#p" />
<use x="124" y="80" xlink:href="#p" />
<use x="128" y="80" xlink:href="#p" />
<use x="132" y="80" xlink:href="#p" />
<use x="136" y="80" xlink:href="#p" />
<use x="140" y="80" xlink:href="#p" />
<use x="168" y="80" xlink:href="#p" />
<use x="172" y="80" xlink:href="#p" />
<use x="192" y="80" xlink:href="#p" />
<use x="196" y="80" xlink:href="#p" />
<use x="200" y="80" xlink:href="#p" />
<use x="8" y="84" xlink:href="#p" />
<use x="16" y="84" xlink:href="#p" />
<use x="24" y="84" xlink:href="#p" />
<use x="40" y="84" xlink:href="#p" />
<use x="44" y="84" xlink:href="#p" />
<use x="48" y="84" xlink:href="#p" />
<use x="60" y="84" xlink:href="#p" />
<use x="100" y="84" xlink:href="#p" />
<use x="108" y="84" xlink:href="#p" />
<use x="112" y="84" xlink:href="#p" />
<use x="128" y="84" xlink:href="#p" />
<use x="132" y="84" xlink:href="#p" />
<use x="136" y="84" xlink:href="#p" />
<use x="148" y="84" xlink:href="#p" />
<use x="156" y="84" xlink:href="#p" />
<use x="160" y="84" xlink:href="#p" />
<use x="168" y="84" xlink:href="#p" />
<use x="184" y="84" xlink:href="#p" />
<use x="188" y="84" xlink:href="#p" />
<use x="196" y="84" xlink:href="#p" />
<use x="200" y="84" xlink:href="#p" />
<use x="8" y="88" xlink:href="#p" />
<use x="24" y="88" xlink:href="#p" />
<use x="28" y="88" xlink:href="#p" />
<use x="32" y="88" xlink:href="#p" />
<use x="36" y="88" xlink:href="#p" />
<use x="40" y="88" xlink:href="#p" />
<use x="48" y="88" xlink:href="#p" />
<use x="56" y="88" xlink:href="#p" />
<use x="68" y="88" xlink:href="#p" />
<use x="84" y="88" xlink:href="#p" />
<use x="92" y="88" xlink:href="#p" />
<use x="96" y="88" xlink:href="#p" />
<use x="104" y="88" xlink:href="#p" />
<use x="120" y="88" xlink:href="#p" />
<use x="124" y="88" xlink:href="#p" />
<use x="128" y="88" xlink:href="#p" />
<use x="148" y="88" xlink:href="#p" />
<use x="152" y="88" xlink:href="#p" />
<use x="156" y="88" xlink:href="#p" />
<use x="160" y="88" xlink:href="#p" />
<use x="168" y="88" xlink:href="#p" />
<use x="176" y="88" xlink:href="#p" />
<use x="192" y="88" xlink:href="#p" />
<use x="16" y="92" xlink:href="#p" />
<use x="20" y="92" xlink:href="#p" />
<use x="40" y="92" xlink:href="#p" />
<use x="52" y="92" xlink:href="#p" />
<use x="56" y="92" xlink:href="#p" />
<use x="60" y="92" xlink:href="#p" />
<use x="72" y="92" xlink:href="#p" />
<use x="80" y="92" xlink:href="#p" />
<use x="96" y="92" xlink:href="#p" />
<use x="112" y="92" xlink:href="#p" />
<use x="116" y="92" xlink:href="#p" />
<use x="132" y="92" xlink:href="#p" />
<use x="140" y="92" xlink:href="#p" />
<use x="148" y="92" xlink:href="#p" />
<use x="156" y="92" xlink:href="#p" />
<use x="172" y="92" xlink:href="#p" />
<use x="176" y="92" xlink:href="#p" />
<use x="180" y="92" xlink:href="#p" />
<use x="196" y="92" xlink:href="#p" />
<use x="12" y="96" xlink:href="#p" />
<use x="16" y="96" xlink:href="#p" />
<use x="20" y="96" xlink:href="#p" />
<use x="24" y="96" xlink:href="#p" />
<use x="28" y="96" xlink:href="#p" />
<use x="32" y="96" xlink:href="#p" />
<use x="36" y="96" xlink:href="#p" />
<use x="40" y="96" xlink:href="#p" />
<use x="52" y="96" xlink:href="#p" />
<use x="56" y="96" xlink:href="#p" />
<use x="60" y="96" xlink:href="#p" />
<use x="68" y="96" xlink:href="#p" />
<use x="72" y="96" xlink:href="#p" />
<use x="80" y="96" xlink:href="#p" />
<use x="92" y="96" xlink:href="#p" />
<use x="96" y="96" xlink:href="#p" />
<use x="100" y="96" xlink:href="#p" />
<use x="104" y="96" xlink:href="#p" />
<use x="108" y="96" xlink:href="#p" />
<use x="112" y="96" xlink:href="#p" />
<use x="116" y="96" xlink:href="#p" />
<use x="124" y="96" xlink:href="#p" />
<use x="128" y="96" xlink:href="#p" />
<use x="132" y="96" xlink:href="#p" />
<use x="144" y="96" xlink:href="#p" />
<use x="148" y="96" xlink:href="#p" />
<use x="160" y="96" xlink:href="#p" />
<use x="164" y="96" xlink:href="#p" />
<use x="168" y="96" xlink:href="#p" />
<use x="172" y="96" xlink:href="#p" />
<use x="176" y="96" xlink:href="#p" />
<use x="180" y="96" xlink:href="#p" />
<use x="184" y="96" xlink:href="#p" />
<use x="196" y="96" xlink:href="#p" />
<use x="200" y="96" xlink:href="#p" />
<use x="12" y="100" xlink:href="#p" />
<use x="24" y="100" xlink:href="#p" />
<use x="40" y="100" xlink:href="#p" />
<use x="44" y="100" xlink:href="#p" />
<use x="52" y="100" xlink:href="#p" />
<use x="60" y="100" xlink:href="#p" />
<use x="72" y="100" xlink:href="#p" />
<use x="84" y="100" xlink:href="#p" />
<use x="88" y="100" xlink:href="#p" />
<use x="92" y="100" xlink:href="#p" />
<use x="96" y="100" xlink:href="#p" />
<use x="112" y="100" xlink:href="#p" />
<use x="116" y="100" xlink:href="#p" />
<use x="124" y="100" xlink:href="#p" />
<use x="144" y="100" xlink:href="#p" />
<use x="148" y="100" xlink:href="#p" />
<use x="152" y="100" xlink:href="#p" />
<use x="156" y="100" xlink:href="#p" />
<use x="160" y="100" xlink:href="#p" />
<use x="164" y="100" xlink:href="#p" />
<use x="168" y="100" xlink:href="#p" />
<use x="184" y="100" xlink:href="#p" />
<use x="188" y="100" xlink:href="#p" />
<use x="200" y="100" xlink:href="#p" />
<use x="12" y="104" xlink:href="#p" />
<use x="16" y="104" xlink:href="#p" />
<use x="24" y="104" xlink:href="#p" />
<use x="32" y="104" xlink:href="#p" />
<use x="40" y="104" xlink:href="#p" />
<use x="56" y="104" xlink:href="#p" />
<use x="60" y="104" xlink:href="#p" />
<use x="68" y="104" xlink:href="#p" />
<use x="72" y="104" xlink:href="#p" />
<use x="80" y="104" xlink:href="#p" />
<use x="84" y="104" xlink:href="#p" />
<use x="88" y="104" xlink:href="#p" />
<use x="92" y="104" xlink:href="#p" />
<use x="96" y="104" xlink:href="#p" />
<use x="104" y="104" xlink:href="#p" />
<use x="112" y="104" xlink:href="#p" />
<use x="116" y="104" xlink:href="#p" />
<use x="120" y="104" xlink:href="#p" />
<use x="124" y="104" xlink:href="#p" />
<use x="128" y="104" xlink:href="#p" />
<use x="132" y="104" xlink:href="#p" />
<use x="140" y="104" xlink:href="#p" />
<use x="148" y="104" xlink:href="#p" />
<use x="164" y="104" xlink:href="#p" />
<use x="168" y="104" xlink:href="#p" />
<use x="176" y="104" xlink:href="#p" />
<use x="184" y="104" xlink:href="#p" />
<use x="192" y="104" xlink:href="#p" />
<use x="196" y="104" xlink:href="#p" />
<use x="200" y="104" xlink:href="#p" />
<use x="8" y="108" xlink:href="#p" />
<use x="12" y="108" xlink:href="#p" />
<use x="24" y="108" xlink:href="#p" />
<use x="40" y="108" xlink:href="#p" />
<use x="44" y="108" xlink:href="#p" />
<use x="48" y="108" xlink:href="#p" />
<use x="60" y="108" xlink:href="#p" />
<use x="64" y="108" xlink:href="#p" />
<use x="76" y="108" xlink:href="#p" />
<use x="92" y="108" xlink:href="#p" />
<use x="96" y="108" xlink:href="#p" />
<use x="112" y="108" xlink:href="#p" />
<use x="116" y="108" xlink:href="#p" />
<use x="128" y="108" xlink:href="#p" />
<use x="132" y="108" xlink:href="#p" />
<use x="140" y="108" xlink:href="#p" />
<use x="152" y="108" xlink:href="#p" />
<use x="164" y="108" xlink:href="#p" />
<use x="168" y="108" xlink:href="#p" />
<use x="184" y="108" xlink:href="#p" />
<use x="188" y="108" xlink:href="#p" />
<use x="192" y="108" xlink:href="#p" />
<use x="16" y="112" xlink:href="#p" />
<use x="20" y="112" xlink:href="#p" />
<use x="24" y="112" xlink:href="#p" />
<use x="28" y="112" xlink:href="#p" />
<use x="32" y="112" xlink:href="#p" />
<use x="36" y="112" xlink:href="#p" />
<use x="40" y="112" xlink:href="#p" />
<use x="44" y="112" xlink:href="#p" />
<use x="60" y="112" xlink:href="#p" />
<use x="64" y="112" xlink:href="#p" />
<use x="72" y="112" xlink:href="#p" />
<use x="84" y="112" xlink:href="#p" />
<use x="92" y="112" xlink:href="#p" />
<use x="96" y="112" xlink:href="#p" />
<use x="100" y="112" xlink:href="#p" />
<use x="104" y="112" xlink:href="#p" />
<use x="108" y="112" xlink:href="#p" />
<use x="112" y="112" xlink:href="#p" />
<use x="120" y="112" xlink:href="#p" />
<use x="124" y="112" xlink:href="#p" />
<use x="128" y="112" xlink:href="#p" />
<use x="136" y="112" xlink:href="#p" />
<use x="140" y="112" xlink:href="#p" />
<use x="148" y="112" xlink:href="#p" />
<use x="156" y="112" xlink:href="#p" />
<use x="164" y="112" xlink:href="#p" />
<use x="168" y="112" xlink:href="#p" />
<use x="172" y="112" xlink:href="#p" />
<use x="176" y="112" xlink:href="#p" />
<use x="180" y="112" xlink:href="#p" />
<use x="184" y="112" xlink:href="#p" />
<use x="188" y="112" xlink:href="#p" />
<use x="192" y="112" xlink:href="#p" />
<use x="196" y="112" xlink:href="#p" />
<use x="200" y="112" xlink:href="#p" />
<use x="20" y="116" xlink:href="#p" />
<use x="36" y="116" xlink:href="#p" />
<use x="52" y="116" xlink:href="#p" />
<use x="56" y="116" xlink:href="#p" />
<use x="64" y="116" xlink:href="#p" />
<use x="68" y="116" xlink:href="#p" />
<use x="80" y="116" xlink:href="#p" />
<use x="84" y="116" xlink:href="#p" />
<use x="92" y="116" xlink:href="#p" />
<use x="96" y="116" xlink:href="#p" />
<use x="104" y="116" xlink:href="#p" />
<use x="116" y="116" xlink:href="#p" />
<use x="124" y="116" xlink:href="#p" />
<use x="128" y="116" xlink:href="#p" />
<use x="132" y="116" xlink:href="#p" />
<use x="136" y="116" xlink:href="#p" />
<use x="144" y="116" xlink:href="#p" />
<use x="148" y="116" xlink:href="#p" />
<use x="156" y="116" xlink:href="#p" />
<use x="160" y="116" xlink:href="#p" />
<use x="164" y="116" xlink:href="#p" />
<use x="184" y="116" xlink:href="#p" />
<use x="188" y="116" xlink:href="#p" />
<use x="200" y="116" xlink:href="#p" />
<use x="8" y="120" xlink:href="#p" />
<use x="20" y="120" xlink:href="#p" />
<use x="28" y="120" xlink:href="#p" />
<use x="32" y="120" xlink:href="#p" />
<use x="36" y="120" xlink:href="#p" />
<use x="44" y="120" xlink:href="#p" />
<use x="48" y="120" xlink:href="#p" />
<use x="60" y="120" xlink:href="#p" />
<use x="64" y="120" xlink:href="#p" />
<use x="76" y="120" xlink:href="#p" />
<use x="80" y="120" xlink:href="#p" />
<use x="92" y="120" xlink:href="#p" />
<use x="100" y="120" xlink:href="#p" />
<use x="104" y="120" xlink:href="#p" />
<use x="108" y="120" xlink:href="#p" />
<use x="116" y="120" xlink:href="#p" />
<use x="120" y="120" xlink:href="#p" />
<use x="124" y="120" xlink:href="#p" />
<use x="128" y="120" xlink:href="#p" />
<use x="132" y="120" xlink:href="#p" />
<use x="136" y="120" xlink:href="#p" />
<use x="152" y="120" xlink:href="#p" />
<use x="156" y="120" xlink:href="#p" />
<use x="164" y="120" xlink:href="#p" />
<use x="168" y="120" xlink:href="#p" />
<use x="172" y="120" xlink:href="#p" />
<use x="176" y="120" xlink:href="#p" />
<use x="184" y="120" xlink:href="#p" />
<use x="188" y="120" xlink:href="#p" />
<use x="192" y="120" xlink:href="#p" />
<use x="196" y="120" xlink:href="#p" />
<use x="8" y="124" xlink:href="#p" />
<use x="12" y="124" xlink:href="#p" />
<use x="36" y="124" xlink:href="#p" />
<use x="44" y="124" xlink:href="#p" />
<use x="56" y="124" xlink:href="#p" />
<use x="68" y="124" xlink:href="#p" />
<use x="80" y="124" xlink:href="#p" />
<use x="88" y="124" xlink:href="#p" />
<use x="92" y="124" xlink:href="#p" />
<use x="96" y="124" xlink:href="#p" />
<use x="104" y="124" xlink:href="#p" />
<use x="116" y="124" xlink:href="#p" />
<use x="124" y="124" xlink:href="#p" />
<use x="132" y="124" xlink:href="#p" />
<use x="140" y="124" xlink:href="#p" />
<use x="152" y="124" xlink:href="#p" />
<use x="164" y="124" xlink:href="#p" />
<use x="168" y="124" xlink:href="#p" />
<use x="180" y="124" xlink:href="#p" />
<use x="188" y="124" xlink:href="#p" />
<use x="196" y="124" xlink:href="#p" />
<use x="32" y="128" xlink:href="#p" />
<use x="40" y="128" xlink:href="#p" />
<use x="48" y="128" xlink:href="#p" />
<use x="52" y="128" xlink:href="#p" />
<use x="56" y="128" xlink:href="#p" />
<use x="80" y="128" xlink:href="#p" />
<use x="96" y="128" xlink:href="#p" />
<use x="100" y="128" xlink:href="#p" />
<use x="116" y="128" xlink:href="#p" />
<use x="132" y="128" xlink:href="#p" />
<use x="136" y="128" xlink:href="#p" />
<use x="148" y="128" xlink:href="#p" />
<use x="152" y="128" xlink:href="#p" />
<use x="160" y="128" xlink:href="#p" />
<use x="168" y="128" xlink:href="#p" />
<use x="184" y="128" xlink:href="#p" />
<use x="188" y="128" xlink:href="#p" />
<use x="192" y="128" xlink:href="#p" />
<use x="196" y="128" xlink:href="#p" />
<use x="200" y="128" xlink:href="#p" />
<use x="8" y="132" xlink:href="#p" />
<use x="16" y="132" xlink:href="#p" />
<use x="24" y="132" xlink:href="#p" />
<use x="28" y="132" xlink:href="#p" />
<use x="36" y="132" xlink:href="#p" />
<use x="48" y="132" xlink:href="#p" />
<use x="60" y="132" xlink:href="#p" />
<use x="64" y="132" xlink:href="#p" />
<use x="68" y="132" xlink:href="#p" />
<use x="80" y="132" xlink:href="#p" />
<use x="84" y="132" xlink:href="#p" />
<use x="88" y="132" xlink:href="#p" />
<use x="96" y="132" xlink:href="#p" />
<use x="108" y="132" xlink:href="#p" />
<use x="112" y="132" xlink:href="#p" />
<use x="116" y="132" xlink:href="#p" />
<use x="140" y="132" xlink:href="#p" />
<use x="144" y="132" xlink:href="#p" />
<use x="148" y="132" xlink:href="#p" />
<use x="152" y="132" xlink:href="#p" />
<use x="160" y="132" xlink:href="#p" />
<use x="168" y="132" xlink:href="#p" />
<use x="172" y="132" xlink:href="#p" />
<use x="188" y="132" xlink:href="#p" />
<use x="200" y="132" xlink:href="#p" />
<use x="24" y="136" xlink:href="#p" />
<use x="28" y="136" xlink:href="#p" />
<use x="32" y="136" xlink:href="#p" />
<use x="48" y="136" xlink:href="#p" />
<use x="52" y="136" xlink:href="#p" />
<use x="60" y="136" xlink:href="#p" />
<use x="72" y="136" xlink:href="#p" />
<use x="76" y="136" xlink:href="#p" />
<use x="80" y="136" xlink:href="#p" />
<use x="88" y="136" xlink:href="#p" />
<use x="92" y="136" xlink:href="#p" />
<use x="100" y="136" xlink:href="#p" />
<use x="108" y="136" xlink:href="#p" />
<use x="112" y="136" xlink:href="#p" />
<use x="128" y="136" xlink:href="#p" />
<use x="132" y="136" xlink:href="#p" />
<use x="144" y="136" xlink:href="#p" />
<use x="152" y="136" xlink:href="#p" />
<use x="156" y="136" xlink:href="#p" />
<use x="164" y="136" xlink:href="#p" />
<use x="168" y="136" xlink:href="#p" />
<use x="176" y="136" xlink:href="#p" />
<use x="184" y="136" xlink:href="#p" />
<use x="192" y="136" xlink:href="#p" />
<use x="8" y="140" xlink:href="#p" />
<use x="12" y="140" xlink:href="#p" />
<use x="36" y="140" xlink:href="#p" />
<use x="40" y="140" xlink:href="#p" />
<use x="52" y="140" xlink:href="#p" />
<use x="56" y="140" xlink:href="#p" />
<use x="60" y="140" xlink:href="#p" />
<use x="64" y="140" xlink:href="#p" />
<use x="104" y="140" xlink:href="#p" />
<use x="124" y="140" xlink:href="#p" />
<use x="128" y="140" xlink:href="#p" />
<use x="132" y="140" xlink:href="#p" />
<use x="140" y="140" xlink:href="#p" />
<use x="152" y="140" xlink:href="#p" />
<use x="164" y="140" xlink:href="#p" />
<use x="172" y="140" xlink:href="#p" />
<use x="176" y="140" xlink:href="#p" />
<use x="180" y="140" xlink:href="#p" />
<use x="192" y="140" xlink:href="#p" />
<use x="32" y="144" xlink:href="#p" />
<use x="36" y="144" xlink:href="#p" />
<use x="40" y="144" xlink:href="#p" />
<use x="52" y="144" xlink:href="#p" />
<use x="72" y="144" xlink:href="#p" />
<use x="80" y="144" xlink:href="#p" />
<use x="84" y="144" xlink:href="#p" />
<use x="92" y="144" xlink:href="#p" />
<use x="96" y="144" xlink:href="#p" />
<use x="100" y="144" xlink:href="#p" />
<use x="104" y="144" xlink:href="#p" />
<use x="116" y="144" xlink:href="#p" />
<use x="120" y="144" xlink:href="#p" />
<use x="124" y="144" xlink:href="#p" />
<use x="128" y="144" xlink:href="#p" />
<use x="136" y="144" xlink:href="#p" />
<use x="140" y="144" xlink:href="#p" />
<use x="148" y="144" xlink:href="#p" />
<use x="156" y="144" xlink:href="#p" />
<use x="164" y="144" xlink:href="#p" />
<use x="172" y="144" xlink:href="#p" />
<use x="176" y="144" xlink:href="#p" />
<use x="192" y="144" xlink:href="#p" />
<use x="196" y="144" xlink:href="#p" />
<use x="200" y="144" xlink:href="#p" />
<use x="8" y="148" xlink:href="#p" />
<use x="12" y="148" xlink:href="#p" />
<use x="16" y="148" xlink:href="#p" />
<use x="24" y="148" xlink:href="#p" />
<use x="36" y="148" xlink:href="#p" />
<use x="44" y="148" xlink:href="#p" />
<use x="48" y="148" xlink:href="#p" />
<use x="56" y="148" xlink:href="#p" />
<use x="60" y="148" xlink:href="#p" />
<use x="68" y="148" xlink:href="#p" />
<use x="80" y="148" xlink:href="#p" />
<use x="92" y="148" xlink:href="#p" />
<use x="96" y="148" xlink:href="#p" />
<use x="100" y="148" xlink:href="#p" />
<use x="104" y="148" xlink:href="#p" />
<use x="108" y="148" xlink:href="#p" />
<use x="120" y="148" xlink:href="#p" />
<use x="128" y="148" xlink:href="#p" />
<use x="132" y="148" xlink:href="#p" />
<use x="140" y="148" xlink:href="#p" />
<use x="156" y="148" xlink:href="#p" />
<use x="160" y="148" xlink:href="#p" />
<use x="172" y="148" xlink:href="#p" />
<use x="188" y="148" xlink:href="#p" />
<use x="200" y="148" xlink:href="#p" />
<use x="12" y="152" xlink:href="#p" />
<use x="16" y="152" xlink:href="#p" />
<use x="20" y="152" xlink:href="#p" />
<use x="32" y="152" xlink:href="#p" />
<use x="40" y="152" xlink:href="#p" />
<use x="56" y="152" xlink:href="#p" />
<use x="68" y="152" xlink:href="#p" />
<use x="80" y="152" xlink:href="#p" />
<use x="100" y="152" xlink:href="#p" />
<use x="104" y="152" xlink:href="#p" />
<use x="116" y="152" xlink:href="#p" />
<use x="120" y="152" xlink:href="#p" />
<use x="124" y="152" xlink:href="#p" />
<use x="128" y="152" xlink:href="#p" />
<use x="136" y="152" xlink:href="#p" />
<use x="140" y="152" xlink:href="#p" />
<use x="148" y="152" xlink:href="#p" />
<use x="152" y="152" xlink:href="#p" />
<use x="156" y="152" xlink:href="#p" />
<use x="160" y="152" xlink:href="#p" />
<use x="164" y="152" xlink:href="#p" />
<use x="168" y="152" xlink:href="#p" />
<use x="180" y="152" xlink:href="#p" />
<use x="184" y="152" xlink:href="#p" />
<use x="188" y="152" xlink:href="#p" />
<use x="192" y="152" xlink:href="#p" />
<use x="200" y="152" xlink:href="#p" />
<use x="16" y="156" xlink:href="#p" />
<use x="20" y="156" xlink:href="#p" />
<use x="24" y="156" xlink:href="#p" />
<use x="28" y="156" xlink:href="#p" />
<use x="40" y="156" xlink:href="#p" />
<use x="44" y="156" xlink:href="#p" />
<use x="48" y="156" xlink:href="#p" />
<use x="52" y="156" xlink:href="#p" />
<use x="60" y="156" xlink:href="#p" />
<use x="72" y="156" xlink:href="#p" />
<use x="80" y="156" xlink:href="#p" />
<use x="84" y="156" xlink:href="#p" />
<use x="92" y="156" xlink:href="#p" />
<use x="100" y="156" xlink:href="#p" />
<use x="104" y="156" xlink:href="#p" />
<use x="108" y="156" xlink:href="#p" />
<use x="124" y="156" xlink:href="#p" />
<use x="132" y="156" xlink:href="#p" />
<use x="140" y="156" xlink:href="#p" />
<use x="156" y="156" xlink:href="#p" />
<use x="168" y="156" xlink:href="#p" />
<use x="180" y="156" xlink:href="#p" />
<use x="188" y="156" xlink:href="#p" />
<use x="12" y="160" xlink:href="#p" />
<use x="28" y="160" xlink:href="#p" />
<use x="32" y="160" xlink:href="#p" />
<use x="48" y="160" xlink:href="#p" />
<use x="60" y="160" xlink:href="#p" />
<use x="68" y="160" xlink:href="#p" />
<use x="72" y="160" xlink:href="#p" />
<use x="80" y="160" xlink:href="#p" />
<use x="84" y="160" xlink:href="#p" />
<use x="96" y="160" xlink:href="#p" />
<use x="104" y="160" xlink:href="#p" />
<use x="120" y="160" xlink:href="#p" />
<use x="124" y="160" xlink:href="#p" />
<use x="128" y="160" xlink:href="#p" />
<use x="144" y="160" xlink:href="#p" />
<use x="148" y="160" xlink:href="#p" />
<use x="156" y="160" xlink:href="#p" />
<use x="160" y="160" xlink:href="#p" />
<use x="164" y="160" xlink:href="#p" />
<use x="176" y="160" xlink:href="#p" />
<use x="188" y="160" xlink:href="#p" />
<use x="196" y="160" xlink:href="#p" />
<use x="200" y="160" xlink:href="#p" />
<use x="12" y="164" xlink:href="#p" />
<use x="16" y="164" xlink:href="#p" />
<use x="20" y="164" xlink:href="#p" />
<use x="40" y="164" xlink:href="#p" />
<use x="44" y="164" xlink:href="#p" />
<use x="48" y="164" xlink:href="#p" />
<use x="52" y="164" xlink:href="#p" />
<use x="72" y="164" xlink:href="#p" />
<use x="76" y="164" xlink:href="#p" />
<use x="80" y="164" xlink:href="#p" />
<use x="88" y="164" xlink:href="#p" />
<use x="112" y="164" xlink:href="#p" />
<use x="116" y="164" xlink:href="#p" />
<use x="124" y="164" xlink:href="#p" />
<use x="132" y="164" xlink:href="#p" />
<use x="140" y="164" xlink:href="#p" />
<use x="144" y="164" xlink:href="#p" />
<use x="152" y="164" xlink:href="#p" />
<use x="160" y="164" xlink:href="#p" />
<use x="168" y="164" xlink:href="#p" />
<use x="172" y="164" xlink:href="#p" />
<use x="176" y="164" xlink:href="#p" />
<use x="180" y="164" xlink:href="#p" />
<use x="200" y="164" xlink:href="#p" />
<use x="8" y="168" xlink:href="#p" />
<use x="12" y="168" xlink:href="#p" />
<use x="16" y="168" xlink:href="#p" />
<use x="32" y="168" xlink:href="#p" />
<use x="36" y="168" xlink:href="#p" />
<use x="40" y="168" xlink:href="#p" />
<use x="44" y="168" xlink:href="#p" />
<use x="48" y="168" xlink:href="#p" />
<use x="52" y="168" xlink:href="#p" />
<use x="60" y="168" xlink:href="#p" />
<use x="72" y="168" xlink:href="#p" />
<use x="76" y="168" xlink:href="#p" />
<use x="80" y="168" xlink:href="#p" />
<use x="88" y="168" xlink:href="#p" />
<use x="92" y="168" xlink:href="#p" />
<use x="96" y="168" xlink:href="#p" />
<use x="100" y="168" xlink:href="#p" />
<use x="104" y="168" xlink:href="#p" />
<use x="108" y="168" xlink:href="#p" />
<use x="112" y="168" xlink:href="#p" />
<use x="128" y="168" xlink:href="#p" />
<use x="156" y="168" xlink:href="#p" />
<use x="160" y="168" xlink:href="#p" />
<use x="164" y="168" xlink:href="#p" />
<use x="168" y="168" xlink:href="#p" />
<use x="172" y="168" xlink:href="#p" />
<use x="176" y="168" xlink:href="#p" />
<use x="180" y="168" xlink:href="#p" />
<use x="184" y="168" xlink:href="#p" />
<use x="188" y="168" xlink:href="#p" />
<use x="192" y="168" xlink:href="#p" />
<use x="196" y="168" xlink:href="#p" />
<use x="200" y="168" xlink:href="#p" />
<use x="40" y="172" xlink:href="#p" />
<use x="44" y="172" xlink:href="#p" />
<use x="48" y="172" xlink:href="#p" />
<use x="56" y="172" xlink:href="#p" />
<use x="64" y="172" xlink:href="#p" />
<use x="96" y="172" xlink:href="#p" />
<use x="112" y="172" xlink:href="#p" />
<use x="116" y="172" xlink:href="#p" />
<use x="152" y="172" xlink:href="#p" />
<use x="156" y="172" xlink:href="#p" />
<use x="160" y="172" xlink:href="#p" />
<use x="168" y="172" xlink:href="#p" />
<use x="184" y="172" xlink:href="#p" />
<use x="192" y="172" xlink:href="#p" />
<use x="196" y="172" xlink:href="#p" />
<use x="8" y="176" xlink:href="#p" />
<use x="12" y="176" xlink:href="#p" />
<use x="16" y="176" xlink:href="#p" />
<use x="20" y="176" xlink:href="#p" />
<use x="24" y="176" xlink:href="#p" />
<use x="28" y="176" xlink:href="#p" />
<use x="32" y="176" xlink:href="#p" />
<use x="40" y="176" xlink:href="#p" />
<use x="44" y="176" xlink:href="#p" />
<use x="48" y="176" xlink:href="#p" />
<use x="52" y="176" xlink:href="#p" />
<use x="56" y="176" xlink:href="#p" />
<use x="60" y="176" xlink:href="#p" />
<use x="64" y="176" xlink:href="#p" />
<use x="76" y="176" xlink:href="#p" />
<use x="84" y="176" xlink:href="#p" />
<use x="88" y="176" xlink:href="#p" />
<use x="96" y="176" xlink:href="#p" />
<use x="104" y="176" xlink:href="#p" />
<use x="112" y="176" xlink:href="#p" />
<use x="116" y="176" xlink:href="#p" />
<use x="120" y="176" xlink:href="#p" />
<use x="124" y="176" xlink:href="#p" />
<use x="128" y="176" xlink:href="#p" />
<use x="132" y="176" xlink:href="#p" />
<use x="136" y="176" xlink:href="#p" />
<use x="140" y="176" xlink:href="#p" />
<use x="148" y="176" xlink:href="#p" />
<use x="168" y="176" xlink:href="#p" />
<use x="176" y="176" xlink:href="#p" />
<use x="184" y="176" xlink:href="#p" />
<use x="192" y="176" xlink:href="#p" />
<use x="200" y="176" xlink:href="#p" />
<use x="8" y="180" xlink:href="#p" />
<use x="32" y="180" xlink:href="#p" />
<use x="48" y="180" xlink:href="#p" />
<use x="52" y="180" xlink:href="#p" />
<use x="56" y="180" xlink:href="#p" />
<use x="64" y="180" xlink:href="#p" />
<use x="84" y="180" xlink:href="#p" />
<use x="88" y="180" xlink:href="#p" />
<use x="96" y="180" xlink:href="#p" />
<use x="112" y="180" xlink:href="#p" />
<use x="120" y="180" xlink:href="#p" />
<use x="128" y="180" xlink:href="#p" />
<use x="132" y="180" xlink:href="#p" />
<use x="136" y="180" xlink:href="#p" />
<use x="164" y="180" xlink:href="#p" />
<use x="168" y="180" xlink:href="#p" />
<use x="184" y="180" xlink:href="#p" />
<use x="8" y="184" xlink:href="#p" />
<use x="16" y="184" xlink:href="#p" />
<use x="20" y="184" xlink:href="#p" />
<use x="24" y="184" xlink:href="#p" />
<use x="32" y="184" xlink:href="#p" />
<use x="40" y="184" xlink:href="#p" />
<use x="44" y="184" xlink:href="#p" />
<use x="52" y="184" xlink:href="#p" />
<use x="56" y="184" xlink:href="#p" />
<use x="60" y="184" xlink:href="#p" />
<use x="64" y="184" xlink:href="#p" />
<use x="76" y="184" xlink:href="#p" />
<use x="96" y="184" xlink:href="#p" />
<use x="100" y="184" xlink:href="#p" />
<use x="104" y="184" xlink:href="#p" />
<use x="108" y="184" xlink:href="#p" />
<use x="112" y="184" xlink:href="#p" />
<use x="116" y="184" xlink:href="#p" />
<use x="128" y="184" xlink:href="#p" />
<use x="140" y="184" xlink:href="#p" />
<use x="144" y="184" xlink:href="#p" />
<use x="148" y="184" xlink:href="#p" />
<use x="152" y="184" xlink:href="#p" />
<use x="156" y="184" xlink:href="#p" />
<use x="160" y="184" xlink:href="#p" />
<use x="164" y="184" xlink:href="#p" />
<use x="168" y="184" xlink:href="#p" />
<use x="172" y="184" xlink:href="#p" />
<use x="176" y="184" xlink:href="#p" />
<use x="180" y="184" xlink:href="#p" />
<use x="184" y="184" xlink:href="#p" />
<use x="188" y="184" xlink:href="#p" />
<use x="192" y="184" xlink:href="#p" />
<use x="200" y="184" xlink:href="#p" />
<use x="8" y="188" xlink:href="#p" />
<use x="16" y="188" xlink:href="#p" />
<use x="20" y="188" xlink:href="#p" />
<use x="24" y="188" xlink:href="#p" />
<use x="32" y="188" xlink:href="#p" />
<use x="40" y="188" xlink:href="#p" />
<use x="44" y="188" xlink:href="#p" />
<use x="56" y="188" xlink:href="#p" />
<use x="68" y="188" xlink:href="#p" />
<use x="80" y="188" xlink:href="#p" />
<use x="84" y="188" xlink:href="#p" />
<use x="112" y="188" xlink:href="#p" />
<use x="124" y="188" xlink:href="#p" />
<use x="136" y="188" xlink:href="#p" />
<use x="140" y="188" xlink:href="#p" />
<use x="148" y="188" xlink:href="#p" />
<use x="152" y="188" xlink:href="#p" />
<use x="156" y="188" xlink:href="#p" />
<use x="164" y="188" xlink:href="#p" />
<use x="168" y="188" xlink:href="#p" />
<use x="172" y="188" xlink:href="#p" />
<use x="176" y="188" xlink:href="#p" />
<use x="180" y="188" xlink:href="#p" />
<use x="184" y="188" xlink:href="#p" />
<use x="188" y="188" xlink:href="#p" />
<use x="8" y="192" xlink:href="#p" />
<use x="16" y="192" xlink:href="#p" />
<use x="20" y="192" xlink:href="#p" />
<use x="24" y="192" xlink:href="#p" />
<use x="32" y="192" xlink:href="#p" />
<use x="40" y="192" xlink:href="#p" />
<use x="48" y="192" xlink:href="#p" />
<use x="52" y="192" xlink:href="#p" />
<use x="56" y="192" xlink:href="#p" />
<use x="60" y="192" xlink:href="#p" />
<use x="80" y="192" xlink:href="#p" />
<use x="84" y="192" xlink:href="#p" />
<use x="88" y="192" xlink:href="#p" />
<use x="104" y="192" xlink:href="#p" />
<use x="108" y="192" xlink:href="#p" />
<use x="124" y="192" xlink:href="#p" />
<use x="136" y="192" xlink:href="#p" />
<use x="140" y="192" xlink:href="#p" />
<use x="144" y="192" xlink:href="#p" />
<use x="148" y="192" xlink:href="#p" />
<use x="152" y="192" xlink:href="#p" />
<use x="160" y="192" xlink:href="#p" />
<use x="164" y="192" xlink:href="#p" />
<use x="168" y="192" xlink:href="#p" />
<use x="176" y="192" xlink:href="#p" />
<use x="180" y="192" xlink:href="#p" />
<use x="200" y="192" xlink:href="#p" />
<use x="8" y="196" xlink:href="#p" />
<use x="32" y="196" xlink:href="#p" />
<use x="40" y="196" xlink:href="#p" />
<use x="44" y="196" xlink:href="#p" />
<use x="56" y="196" xlink:href="#p" />
<use x="60" y="196" xlink:href="#p" />
<use x="68" y="196" xlink:href="#p" />
<use x="76" y="196" xlink:href="#p" />
<use x="88" y="196" xlink:href="#p" />
<use x="92" y="196" xlink:href="#p" />
<use x="104" y="196" xlink:href="#p" />
<use x="112" y="196" xlink:href="#p" />
<use x="144" y="196" xlink:href="#p" />
<use x="152" y="196" xlink:href="#p" />
<use x="160" y="196" xlink:href="#p" />
<use x="172" y="196" xlink:href="#p" />
<use x="176" y="196" xlink:href="#p" />
<use x="180" y="196" xlink:href="#p" />
<use x="200" y="196" xlink:href="#p" />
<use x="8" y="200" xlink:href="#p" />
<use x="12" y="200" xlink:href="#p" />
<use x="16" y="200" xlink:href="#p" />
<use x="20" y="200" xlink:href="#p" />
<use x="24" y="200" xlink:href="#p" />
<use x="28" y="200" xlink:href="#p" />
<use x="32" y="200" xlink:href="#p" />
<use x="40" y="200" xlink:href="#p" />
<use x="68" y="200" xlink:href="#p" />
<use x="72" y="200" xlink:href="#p" />
<use x="76" y="200" xlink:href="#p" />
<use x="80" y="200" xlink:href="#p" />
<use x="88" y="200" xlink:href="#p" />
<use x="100" y="200" xlink:href="#p" />
<use x="108" y="200" xlink:href="#p" />
<use x="136" y="200" xlink:href="#p" />
<use x="140" y="200" xlink:href="#p" />
<use x="148" y="200" xlink:href="#p" />
<use x="152" y="200" xlink:href="#p" />
<use x="156" y="200" xlink:href="#p" />
<use x="172" y="200" xlink:href="#p" />
<use x="192" y="200" xlink:href="#p" />
<use x="196" y="200" xlink:href="#p" />
<use x="200" y="200" xlink:href="#p" />
</g>
</svg>